<svg id="Capa_1" data-name="Capa 1" xmlns="http://www.w3.org/2000/svg" viewBox="0 0 300 200"><defs><style>.cls-1{fill:#00247d;}.cls-2{fill:#fff;}.cls-3{fill:none;}.cls-4{fill:#ad1519;}</style></defs><title>Sin título-2</title><rect class="cls-1" width="300" height="200"/><polygon class="cls-2" points="53.64 66.25 0 66.25 0 133.25 53.65 133.25 0 165.43 0 200.72 18.91 200.72 114.25 143.55 114.25 200.72 181.25 200.72 181.25 142.78 277.86 200.72 300 200.72 300 167.36 243.13 133.25 300 133.25 300 66.25 243.14 66.25 300 32.15 300 0 275.83 0 181.25 56.72 181.25 0 114.25 0 114.25 55.96 20.94 0 0 0 0 34.08 53.64 66.25"/><polygon class="cls-3" points="114.25 0 20.94 0 114.25 55.96 114.25 0"/><polygon class="cls-3" points="275.83 0 181.25 0 181.25 56.72 275.83 0"/><rect class="cls-4" x="127.75" y="0.25" width="40" height="200"/><rect class="cls-4" x="130.12" y="-50.38" width="40" height="300.25" transform="translate(50.38 249.87) rotate(-90)"/><polygon class="cls-3" points="300 167.36 300 133.25 243.13 133.25 300 167.36"/><polygon class="cls-3" points="300 66.25 300 32.15 243.14 66.25 300 66.25"/><polygon class="cls-3" points="18.91 200.72 114.25 200.72 114.25 143.55 18.91 200.72"/><polygon class="cls-3" points="0 34.08 0 66.25 53.64 66.25 0 34.08"/><polygon class="cls-3" points="181.25 200.72 277.86 200.72 181.25 142.78 181.25 200.72"/><polygon class="cls-3" points="0 133.25 0 165.43 53.65 133.25 0 133.25"/></svg>