<svg xmlns="http://www.w3.org/2000/svg" viewBox="0 0 200 200"><defs><style>.a{fill:#efda4f;}.b{fill:#fdfbf0;}.c{fill:#323330;}</style></defs><title>Icon</title><path class="a" d="M200,200.19q-99.48,0-198.95,0c-.72,0-.88-.16-.88-.88q0-99.46,0-199H198.44c.32,0,.64,0,.95,0s.65.14.62.6,0,.63,0,1V198.67C200,199.18,200,199.68,200,200.19Zm-46.91-15.84a42.4,42.4,0,0,0,13.46-2c6.17-2.09,11.26-5.6,14.56-11.36,2.62-4.57,3.35-9.56,3.11-14.75A24.48,24.48,0,0,0,175,137.5a60.86,60.86,0,0,0-13.42-7.81c-3.72-1.68-7.54-3.13-11.19-5a18.82,18.82,0,0,1-5.06-3.47c-3.21-3.25-3.43-11.08,3.1-13.28a11.54,11.54,0,0,1,12.25,2.57,17.34,17.34,0,0,1,3.2,4.23c.25.42.43.52.87.23q6.78-4.38,13.58-8.72c.38-.24.45-.43.22-.82-2.92-4.93-6.59-9.11-11.87-11.55C159,90.36,151,90.08,142.88,92.2a23.73,23.73,0,0,0-15.14,11.39,25.15,25.15,0,0,0-3,14.65,24.55,24.55,0,0,0,8,17.11c4,3.69,8.78,6.17,13.73,8.35,3.85,1.69,7.76,3.24,11.52,5.13a18.74,18.74,0,0,1,5.16,3.52,8.59,8.59,0,0,1-3.64,14.15c-6.91,2.36-13.41,1.52-19.25-3.05a24.14,24.14,0,0,1-5.42-6.32c-.36-.58-.61-.77-1.3-.36-4.58,2.7-9.18,5.35-13.8,8-.58.33-.64.58-.32,1.15a33.49,33.49,0,0,0,11.47,12.43C137.63,182.68,145.16,184.28,153.09,184.35Zm-44.35-58.24h.07q0-16.53,0-33.07c0-.83-.19-1.05-1-1.05q-8.26.08-16.54,0c-.93,0-1.2.2-1.19,1.18q0,31.06,0,62.15a25.79,25.79,0,0,1-.36,4.73c-.52,2.78-1.56,5.28-4.33,6.52-3.59,1.61-9.84,1.88-13.61-2.79a35.51,35.51,0,0,1-3.46-5.22c-.28-.52-.49-.56-1-.25-4.64,2.84-9.31,5.65-14,8.45-.48.29-.66.52-.37,1.1A28.28,28.28,0,0,0,67,181.6c7,3.07,14.23,3.38,21.6,2,5.87-1.12,10.94-3.75,14.67-8.57a26.59,26.59,0,0,0,5.41-16.21C108.87,147.91,108.74,137,108.74,126.11Z"/><path class="b" d="M200,200.19c0-.51,0-1,0-1.52V1.94c0-.32,0-.64,0-.95s-.17-.63-.62-.6-.63,0-.95,0H.19c0-.06-.1-.2.1-.19s.5,0,.76,0q99.12,0,198.24,0c.77,0,.92.15.92.92q0,99.12,0,198.24C200.18,199.61,200.4,200,200,200.19Z"/><path class="c" d="M153.09,184.35c-7.93-.07-15.46-1.67-22.24-6a33.49,33.49,0,0,1-11.47-12.43c-.32-.57-.26-.82.32-1.15,4.62-2.64,9.22-5.29,13.8-8,.69-.41.94-.22,1.3.36a24.14,24.14,0,0,0,5.42,6.32c5.84,4.57,12.34,5.41,19.25,3.05a8.59,8.59,0,0,0,3.64-14.15,18.74,18.74,0,0,0-5.16-3.52c-3.76-1.89-7.67-3.44-11.52-5.13-5-2.18-9.71-4.66-13.73-8.35a24.55,24.55,0,0,1-8-17.11,25.15,25.15,0,0,1,3-14.65A23.73,23.73,0,0,1,142.88,92.2c8.08-2.12,16.07-1.84,23.75,1.71,5.28,2.44,9,6.62,11.87,11.55.23.39.16.58-.22.82q-6.79,4.34-13.58,8.72c-.44.29-.62.19-.87-.23a17.34,17.34,0,0,0-3.2-4.23A11.54,11.54,0,0,0,148.38,108c-6.53,2.2-6.31,10-3.1,13.28a18.82,18.82,0,0,0,5.06,3.47c3.65,1.84,7.47,3.29,11.19,5A60.86,60.86,0,0,1,175,137.5a24.48,24.48,0,0,1,9.27,18.7c.24,5.19-.49,10.18-3.11,14.75-3.3,5.76-8.39,9.27-14.56,11.36A42.4,42.4,0,0,1,153.09,184.35Z"/><path class="c" d="M108.74,126.11c0,10.9.13,21.8,0,32.7A26.59,26.59,0,0,1,103.28,175c-3.73,4.82-8.8,7.45-14.67,8.57C81.24,185,74,184.67,67,181.6a28.28,28.28,0,0,1-14-13.74c-.29-.58-.11-.81.37-1.1,4.66-2.8,9.33-5.61,14-8.45.5-.31.71-.27,1,.25a35.51,35.51,0,0,0,3.46,5.22c3.77,4.67,10,4.4,13.61,2.79,2.77-1.24,3.81-3.74,4.33-6.52a25.79,25.79,0,0,0,.36-4.73q0-31.08,0-62.15c0-1,.26-1.19,1.19-1.18q8.28.08,16.54,0c.85,0,1,.22,1,1.05q0,16.54,0,33.07Z"/></svg>