<svg xmlns="http://www.w3.org/2000/svg" viewBox="0 0 200 200"><defs><style>.a{fill:#e34f26;}.b{fill:#0b0402;}.c{fill:#fff;}.d{fill:#ef652b;}.e{fill:#ef662b;}</style></defs><title>Icon</title><path class="a" d="M12.16,1.92V.64a1.78,1.78,0,0,1,.94-.1c3.23,0,6.45,0,9.68,0l162.9.35c.4,0,.8,0,1.2,0v3.2c-.09-.12-.19-.09-.21,0a6.06,6.06,0,0,0-.1.71c-.13,1.52-.25,3-.38,4.55-.31,3.5-.61,7-.92,10.51-.23,2.66-.45,5.31-.69,8-.3,3.48-.6,7-.91,10.43l-.69,8-.9,10.35q-.36,4.07-.7,8.13-.45,5.1-.89,10.19c-.24,2.74-.47,5.47-.71,8.21q-.45,5.22-.91,10.43c-.23,2.69-.45,5.37-.69,8-.29,3.4-.6,6.8-.89,10.2s-.57,6.69-.86,10l-.9,10.2c-.29,3.37-.57,6.74-.86,10.12-.35,4-.71,8-1,11.94-.3,3.38-.57,6.75-.86,10.12-.4,4.6-.82,9.19-1.22,13.78-.1,1.24.12,1-1.1,1.37L101.2,199.59a3.18,3.18,0,0,1-1.86,0q-29.76-8.4-59.54-16.75l-12.23-3.45c-.66-.18-.66-.19-.71-.84s-.13-1.54-.19-2.31q-.47-5.53-.92-11.08l-.69-8.52-.9-10.92-.69-8.61q-.46-5.53-.92-11.08l-.69-8.52L21,106.62q-.34-4.31-.7-8.61c-.3-3.69-.61-7.38-.91-11.07-.23-2.82-.45-5.64-.68-8.45q-.47-5.55-.92-11.08l-.69-8.53L16.16,48l-.69-8.61-.9-10.76c-.29-3.56-.57-7.12-.86-10.68-.3-3.77-.62-7.54-.93-11.32-.11-1.38-.21-2.76-.34-4.14C12.42,2.26,12.54,2,12.16,1.92Zm88.15,102v34.65a3.65,3.65,0,0,1-2.7.11c-3.57-1.09-7.16-2.1-10.74-3.13L74.67,132c-.39-.12-.69-.23-.73-.77-.25-3.64-.54-7.28-.82-10.92-.12-1.62-.24-3.25-.37-4.87,0-.66-.07-.67-.69-.67H51.42c-.66,0-.66,0-.6.67l.72,8.52c.22,2.6.45,5.21.67,7.81.31,3.56.61,7.12.92,10.67.19,2.18.41,4.36.57,6.54,0,.46.21.67.65.73a2,2,0,0,1,.31.08l42.71,11.94a3.68,3.68,0,0,0,2.71,0,.82.82,0,0,1,.23,0q0,9.76,0,19.52c0,1.34,0,1.33,1.25,1l8.37-2.43,8.68-2.51,12.13-3.53,8.83-2.56c3.25-.94,6.49-1.9,9.74-2.85,3.1-.9,6.2-1.8,9.3-2.67a.91.91,0,0,0,.77-.86c.15-1,.16-2.07.28-3.1.1-.87.13-1.75.21-2.62.14-1.51.3-3,.43-4.53s.19-3,.37-4.45c.09-.74.09-1.49.18-2.23.12-.92.18-1.85.26-2.77s.13-1.7.21-2.55c.13-1.51.33-3,.41-4.52s.27-3.08.38-4.62c.13-1.72.28-3.44.46-5.16.08-.82.11-1.64.21-2.46s.17-1.75.25-2.62.11-1.76.19-2.63c.14-1.51.31-3,.44-4.52s.2-3.19.36-4.78c.07-.66.11-1.32.17-2,.16-1.51.3-3,.44-4.53s.18-3,.36-4.45c.09-.69.09-1.38.16-2.07.16-1.51.3-3,.44-4.52s.18-3,.36-4.45c.09-.7.09-1.39.16-2.07.16-1.51.3-3,.44-4.53s.18-3,.37-4.45c.08-.69.08-1.38.15-2.07.16-1.5.3-3,.44-4.52s.18-3,.37-4.45c.09-.72.07-1.44.17-2.15.12-.92.18-1.85.26-2.78s.13-1.7.2-2.55c.14-1.5.34-3,.42-4.52s.26-3.08.39-4.61.23-3.13.41-4.69.22-3,.36-4.53c.19-2.09.42-4.18.61-6.27s.3-4.3.52-6.44c.07-.72.1-1.44.16-2.15l.45-5c.08-.88.14-1.76.25-2.62s0-1.09-.9-1.1h-.08c-12.58-.09-25.16.08-37.74-.12-10.61-.17-21.23,0-31.84,0-1.21,0-1.21,0-1.21,1.18V36.94c-.35,0-.69,0-1,0H45.06c-.24,0-.48,0-.72,0s-.56.09-.5.49c0,.19,0,.37,0,.56.15,1.59.29,3.18.44,4.78L45,50.36l.9,9.79c.24,2.57.46,5.15.7,7.72l.9,9.79c.24,2.57.46,5.15.7,7.72l.9,9.79c.24,2.58.46,5.15.7,7.72.09,1,.11,1,1.08,1H99.28C99.62,103.85,100,103.88,100.31,103.89Z"/><path class="b" d="M186.88,1c-.4,0-.8,0-1.2,0L22.78.57c-3.23,0-6.45,0-9.68,0a1.78,1.78,0,0,0-.94.1c0-.26-.1-.62.4-.48a1.71,1.71,0,0,0,.32,0h174Z"/><path class="c" d="M100.31,161.74a.82.82,0,0,0-.23,0,3.68,3.68,0,0,1-2.71,0L54.66,149.77a2,2,0,0,0-.31-.08c-.44-.06-.61-.27-.65-.73-.16-2.18-.38-4.36-.57-6.54-.31-3.55-.61-7.11-.92-10.67-.22-2.6-.45-5.21-.67-7.81l-.72-8.52c-.06-.66-.06-.67.6-.67H72.06c.62,0,.64,0,.69.67.13,1.62.25,3.25.37,4.87.28,3.64.57,7.28.82,10.92,0,.54.34.65.73.77l12.21,3.54c3.58,1,7.17,2,10.74,3.13a3.65,3.65,0,0,0,2.7-.11l.39-.07,9.17-2.47,12.72-3.43c.4-.11.7-.21.76-.74.3-3.21.64-6.41,1-9.62q.42-4,.85-8.1l1-9.61c.07-.63.05-.63-.56-.65H101.11c-.26,0-.53,0-.8,0s-.69,0-1,0H50.9c-1,0-1,0-1.08-1-.24-2.57-.46-5.14-.7-7.72l-.9-9.79c-.24-2.57-.46-5.15-.7-7.72l-.9-9.79c-.24-2.57-.46-5.15-.7-7.72L45,50.36l-.69-7.56c-.15-1.6-.29-3.19-.44-4.78,0-.19,0-.37,0-.56-.06-.4.13-.52.5-.49s.48,0,.72,0H99.28c.35,0,.69,0,1,0l1,0h52.37c.71,0,.72,0,.66.71-.28,3-.55,5.94-.83,8.91-.35,3.69-.71,7.37-1.05,11.06-.11,1.23.06,1.11-1.18,1.11h-50a4,4,0,0,0-1,0c-.27,0-.53,0-.8,0H68.34c-.32,0-.42.15-.39.45.08.69.13,1.38.2,2.07.29,2.94.57,5.89.87,8.83.35,3.52.71,7,1,10.57.11,1.18.11,1,1.07,1h28.3a2.9,2.9,0,0,0,.88-.05,4.12,4.12,0,0,0,1.11.05H149.9c.34,0,.46.13.42.49-.12,1.11-.2,2.23-.3,3.34q-.45,5-.91,10c-.23,2.58-.45,5.15-.69,7.73-.3,3.34-.6,6.69-.91,10-.23,2.57-.45,5.15-.69,7.72l-.9,10c-.24,2.57-.46,5.15-.7,7.72-.29,3.32-.6,6.64-.9,9.95-.07.79,0,.79-.83,1Q124,155.12,104.6,160.5C103.17,160.9,101.71,161.22,100.31,161.74Z"/><path class="d" d="M100.32,58.82a4,4,0,0,1,1,0h50c1.24,0,1.07.12,1.18-1.11.34-3.69.7-7.37,1.05-11.06.28-3,.55-5.94.83-8.91.06-.7.05-.71-.66-.71H101.35l-1,0V18.78c0-1.18,0-1.18,1.21-1.18,10.61,0,21.23-.13,31.84,0,12.58.2,25.16,0,37.74.12h.08c.95,0,1,.14.9,1.1s-.17,1.74-.25,2.62l-.45,5c-.06.71-.09,1.43-.16,2.15-.22,2.14-.34,4.29-.52,6.44s-.42,4.18-.61,6.27c-.14,1.51-.19,3-.36,4.53s-.27,3.13-.41,4.69-.3,3.07-.39,4.61-.28,3-.42,4.52c-.07.85-.13,1.7-.2,2.55s-.14,1.86-.26,2.78c-.1.71-.08,1.43-.17,2.15-.19,1.47-.25,3-.37,4.45s-.28,3-.44,4.52c-.07.69-.07,1.38-.15,2.07-.19,1.48-.25,3-.37,4.45s-.28,3-.44,4.53c-.07.68-.07,1.37-.16,2.07-.18,1.47-.24,3-.36,4.45s-.28,3-.44,4.52c-.07.69-.07,1.38-.16,2.07-.18,1.48-.24,3-.36,4.45s-.28,3-.44,4.53c-.06.66-.1,1.32-.17,2-.16,1.59-.22,3.19-.36,4.78s-.3,3-.44,4.52c-.08.87-.12,1.75-.19,2.63s-.16,1.74-.25,2.62-.13,1.64-.21,2.46c-.18,1.72-.33,3.44-.46,5.16-.11,1.54-.29,3.07-.38,4.62s-.28,3-.41,4.52c-.08.85-.14,1.7-.21,2.55s-.14,1.85-.26,2.77c-.09.74-.09,1.49-.18,2.23-.18,1.48-.24,3-.37,4.45s-.29,3-.43,4.53c-.08.87-.11,1.75-.21,2.62-.12,1-.13,2.07-.28,3.1a.91.91,0,0,1-.77.86c-3.1.87-6.2,1.77-9.3,2.67-3.25,1-6.49,1.91-9.74,2.85l-8.83,2.56-12.13,3.53-8.68,2.51-8.37,2.43c-1.25.36-1.25.37-1.25-1q0-9.75,0-19.52c1.4-.52,2.86-.84,4.29-1.24q19.44-5.4,38.89-10.77c.78-.21.76-.21.83-1,.3-3.31.61-6.63.9-9.95.24-2.57.46-5.15.7-7.72l.9-10c.24-2.57.46-5.15.69-7.72.31-3.34.61-6.69.91-10,.24-2.58.46-5.15.69-7.73q.46-5,.91-10c.1-1.11.18-2.23.3-3.34,0-.36-.08-.5-.42-.49H101.43a4.12,4.12,0,0,1-1.11-.05Z"/><path class="e" d="M100.31,103.89c.27,0,.54,0,.8,0h24.54c.61,0,.63,0,.56.65l-1,9.61q-.43,4-.85,8.1c-.34,3.21-.68,6.41-1,9.62-.06.53-.36.63-.76.74L109.88,136l-9.17,2.47-.39.07Q100.32,121.22,100.31,103.89Z"/><path class="a" d="M100.32,58.82V81.63a2.9,2.9,0,0,1-.88.05H71.14c-1,0-1,.19-1.07-1-.34-3.52-.7-7-1-10.57-.3-2.94-.58-5.89-.87-8.83-.07-.69-.12-1.38-.2-2.07,0-.3.07-.46.39-.45H99.52C99.79,58.77,100.05,58.8,100.32,58.82Z"/></svg>