<svg xmlns="http://www.w3.org/2000/svg" viewBox="0 0 200 200"><defs><style>.a{fill:#2965f0;}</style></defs><title>Icon</title><path class="a" d="M177.65,101.05c0,22.93,0,45.85,0,68.77a14.66,14.66,0,0,1-4.26,10.33c-4,4.36-9.07,7.13-14.37,9.49-10.63,4.73-21.85,7.23-33.34,8.76a161.36,161.36,0,0,1-29.13,1.44c-15.59-.75-30.94-3.12-45.55-9-6.86-2.74-13.34-6.13-18.37-11.78a14.39,14.39,0,0,1-3.93-9.88c0-45.45.08-90.91-.07-136.36,0-6.33,2.67-10.83,7.25-14.55,6.73-5.46,14.57-8.82,22.83-11,7.87-2.06,15.91-3.52,23.91-5.05a68.42,68.42,0,0,1,9.28-.87c4.35-.22,8.71-.51,13-.37,15.4.48,30.63,2.18,45.29,7.32,7.44,2.6,14.63,5.72,20.7,10.93,4.1,3.53,6.75,7.62,6.72,13.38C177.58,55.47,177.65,78.26,177.65,101.05Zm-74.37-89.8c-5.89.36-11.79.65-17.67,1.11A91.86,91.86,0,0,0,62.84,17a29.54,29.54,0,0,0-10.39,5.57c-3.37,3-3.65,6.27-.8,9.69s7,5.1,11.09,6.53c10.68,3.73,21.81,5.12,33,5.48a206.88,206.88,0,0,0,22.95-.75,159.52,159.52,0,0,0,18-2.75,41.64,41.64,0,0,0,15.44-6.19c5.79-3.92,6-8.83.4-13-4.54-3.42-9.89-5.13-15.33-6.44A141.92,141.92,0,0,0,103.28,11.25Zm10.29,114.81c.78-.47,1.46-.83,2.1-1.27,8.85-6,10.69-18.57,6.69-27.39-3-6.53-8.16-10.11-15.42-10.87-6.65-.69-12.53.77-17.3,5.51-5.39,5.35-6.87,12-5.79,19.35A19,19,0,0,0,100.6,128a4.74,4.74,0,0,1,2.46,1.31c2.35,2.34,4.51,4.86,6.87,7.18a4.35,4.35,0,0,0,2.66,1.18c4,.13,8.07.06,12.11.05.52,0,1-.12,2.16-.24ZM51.85,114.9c0,3.15.07,6.19,0,9.22a2.3,2.3,0,0,0,2,2.64,32.42,32.42,0,0,0,18.74.2c7.8-2.41,11.19-10.9,7.09-17.79-1.84-3.08-4.9-4.74-8.08-6.16a44.37,44.37,0,0,1-5.24-2.53c-.71-.43-1.57-1.7-1.38-2.25a3.55,3.55,0,0,1,2.22-2,14.66,14.66,0,0,1,5.2.07,69.31,69.31,0,0,1,6.83,2c0-3.27,0-6.32-.05-9.37A1.76,1.76,0,0,0,78,87.65c-6.65-1.78-13.29-2.18-19.77.7a12.22,12.22,0,0,0-6.44,14.22c1.27,4.44,4.53,6.79,8.41,8.58a38.8,38.8,0,0,1,5.46,2.53,3.71,3.71,0,0,1,1.45,3c-.12.76-1.58,1.73-2.54,1.85a11.45,11.45,0,0,1-4.79-.45C57.21,117.27,54.77,116.09,51.85,114.9Zm77.84,12.58h26.06c0-2.77-.09-5.42,0-8.06.08-1.62-.61-2-2.06-2-3.12.07-6.25-.08-9.37.06-1.8.07-2.34-.51-2.32-2.32.09-8.59,0-17.18,0-25.77V87.12H129.69Z"/><path class="a" d="M104.2,97.11c2.85,0,4.6,1.67,5.66,4a15.25,15.25,0,0,1,.64,10.42c-1.06,3.89-3.61,6-6.75,5.9-3.33-.13-5.79-2.61-6.55-6.6a18,18,0,0,1,.33-8.44A7.08,7.08,0,0,1,104.2,97.11Z"/></svg>