<svg xmlns="http://www.w3.org/2000/svg" viewBox="0 0 200 200"><defs><style>.a{fill:#c1272d;}.b{fill:#0071bc;}</style></defs><title>Icon</title><path class="a" d="M118.7,1.71a20.63,20.63,0,0,1,3.72,7.07c1.82,6.06,1.06,12-1.28,17.7a51.32,51.32,0,0,1-9.82,15,103,103,0,0,1-12.81,11.8A62.83,62.83,0,0,0,89.24,62a34.42,34.42,0,0,0-4.11,6.09,20,20,0,0,0-.81,17.36,45.81,45.81,0,0,0,4.85,8.81c2.14,3.15,4.34,6.27,6.44,9.45a28.21,28.21,0,0,1,2.56,4.84c-.22-.17-.45-.33-.66-.52A163.11,163.11,0,0,1,81.25,91.6a44,44,0,0,1-6.89-10.9,17.86,17.86,0,0,1-1.24-11.3,18.47,18.47,0,0,1,2.93-6.25,54.19,54.19,0,0,1,9.81-10.37c3.69-3.08,7.48-6.05,11.25-9.05A103.78,103.78,0,0,0,110.63,31.5a35.79,35.79,0,0,0,7.42-12.43,30.43,30.43,0,0,0,.78-15.73c-.07-.31-.13-.62-.17-.94A4.37,4.37,0,0,1,118.7,1.71Z"/><path class="a" d="M106.32,115.51c1.14-1.6,2.22-2.9,3.06-4.34,3.05-5.2,2.64-10.32-1.07-15.09-1.7-2.19-3.44-4.35-5-6.65a25.52,25.52,0,0,1-4.06-10.16,19.68,19.68,0,0,1,3.14-14.16,37.86,37.86,0,0,1,10.72-10.53,89.3,89.3,0,0,1,20.66-10.26c2.51-.9,5.06-1.7,7.59-2.54l.15.28c-.33.2-.66.42-1,.62A186.66,186.66,0,0,0,123.23,54a51.72,51.72,0,0,0-8.12,7.24,33.81,33.81,0,0,0-3.51,4.83,11.66,11.66,0,0,0-.49,11,39.65,39.65,0,0,0,4.17,7c1,1.49,2.13,2.94,3.15,4.44A13.47,13.47,0,0,1,121,98.07,16.48,16.48,0,0,1,117.5,106,39.23,39.23,0,0,1,106.32,115.51Z"/><path class="b" d="M159.84,170.53c.17,0,.22,0,.25.06,2.86,1.71,3,3.78.47,5.92a22.8,22.8,0,0,1-5.8,3.25,79.86,79.86,0,0,1-15.65,4.54c-4.88,1-9.81,1.78-14.74,2.45-4.09.56-8.21.82-12.32,1.19a312.23,312.23,0,0,1-33.09.74c-4.21-.07-8.43-.45-12.64-.72-2.85-.18-5.71-.35-8.55-.63q-5.48-.56-10.94-1.28c-3.95-.52-7.91-1-11.84-1.72a46.83,46.83,0,0,1-6-1.63,6.27,6.27,0,0,1-2.08-1.26,2.39,2.39,0,0,1-.41-3.52,13.05,13.05,0,0,1,2.74-2.61,38.43,38.43,0,0,1,11-5A39.71,39.71,0,0,1,53,168.2a29.36,29.36,0,0,1,2.93.38v.32c-.36.06-.72.14-1.08.17a38.33,38.33,0,0,0-14,4.09,9.22,9.22,0,0,0-1.81,1.21c-1.49,1.27-1.4,2.49.27,3.46a13.34,13.34,0,0,0,2.11.95,54.25,54.25,0,0,0,11.21,2.72c4.63.64,9.27,1.2,13.92,1.6,4.11.35,8.25.5,12.38.61,5.35.13,10.72.23,16.07.18s10.9-.26,16.35-.51q5.91-.25,11.81-.8a189.77,189.77,0,0,0,24-3.24c2.65-.58,5.26-1.37,7.84-2.21a12.67,12.67,0,0,0,3.24-1.69C160.2,174.11,160.57,172.85,159.84,170.53Z"/><path class="b" d="M129.08,163.32c-2.8,1-5.43,1.93-8.1,2.75a87.83,87.83,0,0,1-15.16,3.08,94.36,94.36,0,0,1-17.94.44,60,60,0,0,1-16.76-3.26A34.32,34.32,0,0,1,66.23,164,8.2,8.2,0,0,1,64,162a2.85,2.85,0,0,1,.17-4A7,7,0,0,1,65.39,157a18.92,18.92,0,0,1,5.86-2.65l-.52.81c-.76,1.23-.63,2.18.62,2.86a10.3,10.3,0,0,0,3.16,1.17c2.63.46,5.29.82,7.94,1.08a95.2,95.2,0,0,0,14.42.56c3.66-.19,7.32-.55,11-1,3.37-.42,6.71-1.08,10.07-1.6a2.32,2.32,0,0,1,1.31.12C122.41,159.89,125.59,161.53,129.08,163.32Z"/><path class="b" d="M138.86,117.48l-1.15.63a26.4,26.4,0,0,0-3.37,1.79,17.24,17.24,0,0,1-7.57,2.8c-5,.87-9.91,1.73-14.89,2.42-3.23.46-6.5.63-9.75.91a232.55,232.55,0,0,1-25.59.76c-4.86-.11-9.7-.45-14.55-.74a78.11,78.11,0,0,1-12.38-1.7,52.73,52.73,0,0,1-5.33-1.62,5.93,5.93,0,0,1-1.74-1,1.54,1.54,0,0,1-.16-2.57,8,8,0,0,1,1.83-1.39,66.78,66.78,0,0,1,10.41-4.36,73,73,0,0,1,14.58-3.23,35.33,35.33,0,0,1,5.15-.2c-1.56.44-3.14.81-4.67,1.33-3.35,1.14-6.7,2.29-10,3.57a12.5,12.5,0,0,0-3.33,2.06c-1.22,1-1.06,2,.32,2.81A14.85,14.85,0,0,0,62,121.25a76.15,76.15,0,0,0,11.39.89c4.36,0,8.72.18,13.08.12s8.9-.24,13.34-.5c4.85-.28,9.69-.59,14.52-1.09,5.46-.57,10.89-1.34,16.33-2.06,2.47-.33,4.93-.75,7.39-1.12A5.89,5.89,0,0,1,138.86,117.48Z"/><path class="b" d="M132.64,142.11c-2.63.68-4.93,1.38-7.28,1.84-5.06,1-10.14,2-15.25,2.7a98.46,98.46,0,0,1-10.3.89c-4.9.2-9.81.37-14.71.22a79.13,79.13,0,0,1-19.35-2.68,22,22,0,0,1-5.89-2.45c-3.15-2-3.23-4.3-.21-6.52a24.89,24.89,0,0,1,7.06-3.41c-.45.62-.75,1-1,1.39-1.22,1.84-.84,3.37,1.11,4.4a13.55,13.55,0,0,0,5.11,1.31c4.11.38,8.22.87,12.34,1,5,.14,10,0,15-.11,2.44-.06,4.89-.3,7.32-.58,3.78-.44,7.56-.95,11.32-1.5,2.15-.31,4.28-.77,6.43-1.13a1.33,1.33,0,0,1,1,.2A27.57,27.57,0,0,0,132.64,142.11Z"/><path class="b" d="M53.67,193c1.47.18,2.95.38,4.43.54,2.57.28,5.14.58,7.71.81,3.07.28,6.14.58,9.22.73q5.58.28,11.16.34c4.68.06,9.36.1,14,0,4.94-.14,9.88-.45,14.81-.77,3.48-.22,7-.47,10.43-.89,4.59-.55,9.18-1.18,13.73-1.94a134,134,0,0,0,16.56-3.76,51.9,51.9,0,0,0,9.52-3.63c1.71-.91,3.29-2.09,4.92-3.14l.72-.5a9.21,9.21,0,0,1-2.21,4.07,19.68,19.68,0,0,1-5.82,4.2,57.67,57.67,0,0,1-13.07,4.53,143.65,143.65,0,0,1-16.46,2.82c-5.55.64-11.1,1.09-16.68,1.39q-11.43.63-22.87.43c-4.58-.08-9.17-.22-13.74-.57-5.11-.39-10.21-.92-15.27-1.64-3.17-.46-6.27-1.39-9.4-2.13a14.33,14.33,0,0,1-1.76-.65Z"/><path class="b" d="M140.7,145.87c.37-.22.73-.46,1.1-.66a70.3,70.3,0,0,0,12.77-8.55,30.41,30.41,0,0,0,6.46-7.52,14.57,14.57,0,0,0,2.18-7.62,10.71,10.71,0,0,0-1.84-5.89,12.91,12.91,0,0,0-13.22-5.31l-3.15.75a4.4,4.4,0,0,1,1.95-1.53c6.31-2.39,12.47-2.38,18.2,1.51s7.34,10.43,4.51,16.61a22.84,22.84,0,0,1-6.44,8,47.22,47.22,0,0,1-13.35,7.53c-2.94,1.14-6,2.08-9,3.11Z"/></svg>