<svg xmlns="http://www.w3.org/2000/svg" viewBox="0 0 200 200"><defs><style>.a{fill:#264de3;}.b{fill:#2965f0;}.c{fill:#e9e9ea;}.d{fill:#eaeaea;}.e{fill:#fefefe;}</style></defs><title>Icon</title><path class="a" d="M101.5,200.25H98.75a1.22,1.22,0,0,0,.17-.15s0-.07-.06-.1c-.27-.31-.68-.3-1-.39Q80.53,194.78,63.22,190l-34-9.44c-.64-.18-1.13-.31-1.19-1.16-.29-3.86-.66-7.71-1-11.57l-2.1-23.76q-1.18-13.32-2.39-26.63c-.8-8.87-1.57-17.75-2.36-26.62s-1.6-17.75-2.39-26.62S16.2,46.43,15.42,37.56Q14.2,23.94,13,10.31C12.68,7,12.33,3.6,12,.25H188.5c-.07.49-.18,1-.22,1.48-.37,4.19-.72,8.38-1.09,12.57q-1.45,16.11-2.91,32.22c-1,10.74-1.89,21.49-2.85,32.23q-1.56,17.48-3.15,35-1.44,16.11-2.84,32.22Q174,162.49,172.5,179a1.45,1.45,0,0,1-1.24,1.53q-21.58,5.94-43.16,11.95-12.87,3.56-25.73,7.15C102.07,199.75,101.42,199.52,101.5,200.25Zm-1.24-96.4q0,17.55,0,35.12a2,2,0,0,1-.49,0Q88,135.82,76.28,132.66c-.68-.18-.75-.58-.8-1.17-.46-5.23-1-10.45-1.4-15.67-.06-.72-.24-1-1-1q-10.11,0-20.23,0c-.81,0-1,.25-.9,1,.4,4.19.74,8.38,1.11,12.56.59,6.68,1.2,13.35,1.76,20A1.35,1.35,0,0,0,56,149.82c2.26.56,4.49,1.24,6.73,1.86l37.5,10.39q0,10.62,0,21.24c0,1.41.23,1.58,1.54,1.22l7.22-2,36-10c4.13-1.15,8.26-2.32,12.39-3.46.69-.19,1.27-.42,1.34-1.26.33-4,.68-7.94,1-11.92.28-3.23.54-6.46.83-9.69.38-4.22.79-8.44,1.17-12.66s.7-8.19,1.07-12.29.8-8.44,1.17-12.66.7-8.36,1.08-12.54.8-8.44,1.17-12.66.7-8.37,1.07-12.55.8-8.44,1.18-12.66.69-8.36,1.06-12.54c.46-5.13,1-10.26,1.44-15.39.41-4.47.79-8.94,1.22-13.41.15-1.6,0-1.87-1.58-1.87H101.9c-1.6,0-1.65.06-1.65,1.73V37c-.54,0-1.08.06-1.62.06H46.9c-2.06,0-2,0-1.84,2.12.57,6.13,1.17,12.27,1.66,18.41.1,1.2.39,1.59,1.67,1.58q25-.07,50.11,0c.58,0,1.16.06,1.74.1q0,11.23,0,22.47c-.46,0-.92,0-1.37,0H50.67c-1.77,0-1.81,0-1.65,1.81.56,6.26,1.18,12.52,1.67,18.78.1,1.2.44,1.48,1.6,1.48q23.17-.06,46.35,0C99.18,103.78,99.72,103.83,100.26,103.85Z"/><path class="b" d="M100.25,37V16.73c0-1.67,0-1.73,1.65-1.73h68.73c1.56,0,1.73.27,1.58,1.87-.43,4.47-.81,8.94-1.22,13.41-.47,5.13-1,10.26-1.44,15.39-.37,4.18-.69,8.36-1.06,12.54s-.8,8.44-1.18,12.66-.7,8.37-1.07,12.55-.8,8.44-1.17,12.66-.7,8.36-1.08,12.54-.79,8.44-1.17,12.66-.71,8.2-1.07,12.29-.79,8.44-1.17,12.66c-.29,3.23-.55,6.46-.83,9.69-.34,4-.69,8-1,11.92-.07.84-.65,1.07-1.34,1.26-4.13,1.14-8.26,2.31-12.39,3.46l-36,10-7.22,2c-1.31.36-1.53.19-1.54-1.22q0-10.62,0-21.24l0-.1c2.77-.74,5.54-1.47,8.3-2.23q17.85-4.94,35.7-9.88c.79-.22,1.28-.43,1.31-1.44.08-2.16.35-4.31.55-6.47q1.18-13.3,2.39-26.62c.71-7.92,1.39-15.84,2.1-23.76.79-8.83,1.61-17.66,2.39-26.49s1.55-17.75,2.39-26.62c.11-1.17-.09-1.46-1.28-1.45q-26.37,0-52.73,0c-.37,0-.75,0-1.12,0Z"/><path class="c" d="M100.26,162.07l-37.5-10.39c-2.24-.62-4.47-1.3-6.73-1.86a1.35,1.35,0,0,1-1.24-1.39c-.56-6.68-1.17-13.35-1.76-20-.37-4.18-.71-8.37-1.11-12.56-.07-.77.09-1,.9-1q10.11,0,20.23,0c.79,0,1,.28,1,1,.44,5.22.94,10.44,1.4,15.67,0,.59.12,1,.8,1.17Q88,135.8,99.76,139a2,2,0,0,0,.49,0v23Z"/><path class="c" d="M100.24,59.22c-.58,0-1.16-.1-1.74-.1q-25.05,0-50.11,0c-1.28,0-1.57-.38-1.67-1.58-.49-6.14-1.09-12.28-1.66-18.41C44.86,37,44.84,37,46.9,37H98.63c.54,0,1.08,0,1.62-.06v.11q0,11,0,22A1.1,1.1,0,0,1,100.24,59.22Z"/><path class="d" d="M100.26,103.85c-.54,0-1.08-.07-1.62-.07q-23.17,0-46.35,0c-1.16,0-1.5-.28-1.6-1.48C50.2,96.07,49.58,89.81,49,83.55c-.16-1.81-.12-1.81,1.65-1.81H98.89c.45,0,.91,0,1.37,0l0,.1q0,11,0,21.94Z"/><path class="b" d="M100.25,139q0-17.56,0-35.12v-.12l20.22,0c2,0,4,0,6,0,.66,0,.9.21.82.87-.12,1-.18,2-.27,3-.7,7.87-1.41,15.75-2.08,23.62a1.5,1.5,0,0,1-1.35,1.56c-7.79,2-15.56,4.18-23.34,6.28Z"/><path class="b" d="M100.24,59.22a1.1,1.1,0,0,0,0-.18c.5,0,1,.07,1.5.07h28.09c1.49,0,1.46,0,1.32,1.53-.56,6-1.12,12.1-1.64,18.15-.25,2.95-.21,2.95-3.19,2.95l-26.1.05,0-.1Q100.25,70.46,100.24,59.22Z"/><path class="e" d="M100.24,81.79l26.1-.05c3,0,2.94,0,3.19-2.95.52-6.05,1.08-12.1,1.64-18.15.14-1.53.17-1.53-1.32-1.53H101.76c-.5,0-1,0-1.5-.07q0-11,0-22c.37,0,.75,0,1.12,0q26.37,0,52.73,0c1.19,0,1.39.28,1.28,1.45-.84,8.87-1.59,17.75-2.39,26.62s-1.6,17.66-2.39,26.49c-.71,7.92-1.39,15.84-2.1,23.76Q147.3,128.65,146.1,142c-.2,2.16-.47,4.31-.55,6.47,0,1-.52,1.22-1.31,1.44q-17.85,4.92-35.7,9.88c-2.76.76-5.53,1.49-8.3,2.23V139.08c7.78-2.1,15.55-4.23,23.34-6.28a1.5,1.5,0,0,0,1.35-1.56c.67-7.87,1.38-15.75,2.08-23.62.09-1,.15-2,.27-3,.08-.66-.16-.88-.82-.87-2,0-4,0-6,0l-20.22,0Q100.23,92.77,100.24,81.79Z"/></svg>